<!DOCTYPE svg PUBLIC "-//W3C//DTD SVG 20010904//EN" "http://www.w3.org/TR/2001/REC-SVG-20010904/DTD/svg10.dtd">
<svg version="1.0" xmlns="http://www.w3.org/2000/svg" width="153px" height="32px" viewBox="0 0 1530 320" preserveAspectRatio="xMidYMid meet">
<g id="layer101" fill="#080817" stroke="none">
 <path d="M82 304 c-99 -51 -111 -211 -20 -277 38 -28 125 -34 172 -12 103 49 117 211 23 277 -41 29 -129 35 -175 12z"/>
 <path d="M492 304 c-99 -51 -111 -211 -20 -277 38 -28 125 -34 172 -12 103 49 117 211 23 277 -41 29 -129 35 -175 12z"/>
 <path d="M902 304 c-99 -51 -111 -211 -20 -277 38 -28 125 -34 172 -12 103 49 117 211 23 277 -41 29 -129 35 -175 12z"/>
 <path d="M1292 304 c-99 -51 -111 -211 -20 -277 38 -28 125 -34 172 -12 103 49 117 211 23 277 -41 29 -129 35 -175 12z"/>
 </g>
<g id="layer102" fill="#7c7c84" stroke="none">
 <path d="M130 205 c0 -25 -4 -45 -10 -45 -5 0 -10 -7 -10 -15 0 -8 4 -15 9 -15 5 0 11 -12 13 -27 2 -23 8 -29 36 -31 24 -2 32 1 32 12 0 9 -7 16 -15 16 -8 0 -15 7 -15 15 0 8 7 15 15 15 8 0 15 7 15 15 0 8 -7 15 -15 15 -11 0 -15 12 -15 45 0 38 -3 45 -20 45 -17 0 -20 -7 -20 -45z"/>
 <path d="M489 210 l-24 -20 26 6 c34 7 45 -10 25 -38 -9 -12 -16 -31 -16 -41 0 -14 5 -17 23 -12 12 4 26 11 31 16 6 5 14 -1 20 -14 17 -32 38 -30 69 8 l28 34 -40 41 c-33 33 -46 40 -79 40 -25 0 -48 -7 -63 -20z"/>
 <path d="M910 160 l0 -70 70 0 70 0 0 70 0 70 -70 0 -70 0 0 -70z m85 0 c7 0 16 10 18 23 4 19 4 18 6 -5 1 -24 -3 -28 -24 -28 -21 0 -25 4 -24 28 2 23 2 24 6 5 2 -13 11 -23 18 -23z"/>
 <path d="M1307 224 c-4 -4 -7 -25 -7 -46 0 -31 3 -38 20 -38 11 0 20 6 20 14 0 20 25 37 44 30 9 -3 16 -15 16 -25 0 -13 7 -19 21 -19 18 0 20 5 17 43 l-3 42 -60 3 c-34 2 -64 0 -68 -4z"/>
 <path d="M1355 161 c-3 -5 -1 -12 5 -16 12 -7 30 2 30 16 0 12 -27 12 -35 0z"/>
 <path d="M1300 116 c0 -26 28 -37 82 -34 46 3 53 6 56 26 3 21 0 22 -67 22 -54 0 -71 -3 -71 -14z"/>
 </g>
<g id="layer103" fill="#b1b1b6" stroke="none">
 <path d="M130 206 c0 -25 -4 -46 -10 -46 -5 0 -10 -7 -10 -15 0 -8 5 -15 10 -15 6 0 10 -8 10 -18 0 -25 19 -42 47 -42 30 0 30 26 1 34 -22 6 -22 7 -5 20 20 15 23 36 5 36 -9 0 -13 15 -13 42 0 33 -4 43 -17 46 -15 3 -18 -4 -18 -42z"/>
 <path d="M504 215 c-19 -14 -19 -14 2 -15 32 0 34 -8 14 -53 -10 -23 -17 -43 -15 -46 3 -2 17 4 32 14 19 13 28 14 31 6 2 -6 11 -18 19 -27 14 -13 18 -12 44 17 30 34 36 49 20 49 -5 0 -13 9 -16 20 -13 42 -93 64 -131 35z"/>
 <path d="M914 217 c-3 -8 -4 -39 -2 -68 l3 -54 65 0 65 0 0 65 0 65 -63 3 c-47 2 -64 -1 -68 -11z m44 -57 c-4 -52 -18 -52 -18 0 0 22 5 40 10 40 6 0 9 -18 8 -40z m35 18 l4 -23 8 23 c9 26 25 29 25 4 0 -25 -18 -41 -41 -35 -12 3 -19 14 -19 29 0 30 17 31 23 2z"/>
 <path d="M1312 218 c-7 -7 -12 -27 -12 -45 0 -40 26 -45 40 -8 6 15 17 25 30 25 13 0 24 -10 30 -25 14 -37 40 -32 40 8 0 18 -5 38 -12 45 -16 16 -100 16 -116 0z"/>
 <path d="M1300 116 c0 -23 24 -36 70 -36 46 0 70 13 70 36 0 8 -22 12 -70 12 -48 0 -70 -4 -70 -12z"/>
 </g>
<g id="layer104" fill="#fbfbfb" stroke="none">
 <path d="M130 200 c0 -32 -4 -50 -12 -50 -9 0 -9 -3 0 -12 7 -7 12 -20 12 -30 0 -19 35 -42 50 -33 15 9 12 25 -5 25 -8 0 -15 7 -15 15 0 8 7 15 15 15 8 0 15 5 15 10 0 6 -7 10 -15 10 -11 0 -15 12 -15 50 0 38 -4 50 -15 50 -11 0 -15 -12 -15 -50z"/>
 <path d="M525 223 c-11 -3 -24 -9 -30 -15 -7 -6 -5 -7 5 -4 8 3 22 1 30 -4 13 -8 13 -13 2 -30 -7 -12 -17 -33 -23 -47 l-9 -25 34 20 34 20 11 -24 c14 -31 22 -30 54 5 l26 29 -32 35 c-32 35 -65 48 -102 40z"/>
 <path d="M914 217 c-3 -8 -4 -39 -2 -68 l3 -54 65 0 65 0 0 65 0 65 -63 3 c-47 2 -64 -1 -68 -11z m75 -38 l4 -24 6 23 c8 32 26 28 26 -5 0 -24 -5 -29 -30 -31 -16 -2 -34 -10 -38 -18 -13 -22 -24 -8 -25 32 -2 46 1 51 30 49 16 -1 24 -9 27 -26z"/>
 <path d="M1306 204 c-9 -25 -7 -54 4 -54 6 0 21 12 33 26 24 28 52 25 62 -7 8 -25 35 -25 35 0 0 44 -10 51 -70 51 -44 0 -59 -4 -64 -16z"/>
 <path d="M1306 105 c5 -11 22 -15 64 -15 42 0 59 4 64 15 7 18 -10 20 -18 3 -5 -10 -7 -10 -12 0 -3 7 -25 12 -55 12 -39 0 -47 -3 -43 -15z"/>
 </g>

</svg>